<svg width="32" height="36" viewBox="0 0 32 36" fill="none" xmlns="http://www.w3.org/2000/svg">
<path d="M0.75 18.5372L3 15.2042L6 18.2042L10 16.2042L13 19.2042L17 13.2042L21 16.2042L24 15.2042L26 18.2042L29 15.2042L31 19.2042L29 26.2042L18 31.2042L7 29.2042L1 23.2042L0.75 18.5372Z" fill="#99AAB5"/>
<path d="M27.9562 13.9162C27.9772 13.6292 28.0002 13.3422 28.0002 13.0502C28.0002 7.10715 23.6762 2.18615 18.0042 1.23115C19.1932 0.971151 20.0352 0.722151 19.0002 0.204151C17.8852 -0.353849 16.7702 0.333151 16.0012 1.05015H15.9992C15.2302 0.333151 14.1162 -0.353849 13.0002 0.204151C11.9652 0.722151 12.8072 0.971151 13.9962 1.23015C8.3252 2.18515 4.0002 7.10615 4.0002 13.0502C4.0002 13.3422 4.0232 13.6292 4.0442 13.9172C3.5622 20.5172 -2.25881 30.2042 16.0002 30.2042C34.2592 30.2042 28.4382 20.5172 27.9562 13.9162Z" fill="#FFCC4D"/>
<path d="M19 13.2042C19 14.8612 17.657 15.2042 16 15.2042C14.343 15.2042 13 14.8612 13 13.2042C13 11.5472 14.343 10.2042 16 10.2042C17.657 10.2042 19 11.5472 19 13.2042Z" fill="#F4900C"/>
<path d="M9.5 12.2042C10.3284 12.2042 11 11.5326 11 10.7042C11 9.87574 10.3284 9.20416 9.5 9.20416C8.67157 9.20416 8 9.87574 8 10.7042C8 11.5326 8.67157 12.2042 9.5 12.2042Z" fill="#662113"/>
<path d="M22.5 12.2042C23.3284 12.2042 24 11.5326 24 10.7042C24 9.87574 23.3284 9.20416 22.5 9.20416C21.6716 9.20416 21 9.87574 21 10.7042C21 11.5326 21.6716 12.2042 22.5 12.2042Z" fill="#662113"/>
<path d="M29 24.2041L26 23.2041L22 29.2041L19 24.2041L17 26.2041L13 24.2041L10 28.2041L7 22.2041L4 24.2041L0.706 16.4391C0.249 17.7881 0 19.2201 0 20.7041C0 28.7131 7.164 35.2041 16 35.2041C24.836 35.2041 32 28.7131 32 20.7041C32 19.4601 31.809 18.2601 31.483 17.1071L29 24.2041Z" fill="#E1E8ED"/>
</svg>
