<svg width="104" height="47" viewBox="0 0 104 47" fill="none" xmlns="http://www.w3.org/2000/svg">
<path d="M39.764 16.456C41.8173 16.456 43.6187 16.8573 45.168 17.66C46.736 18.4627 47.94 19.6107 48.78 21.104C49.6387 22.5787 50.068 24.296 50.068 26.256C50.068 28.216 49.6387 29.9333 48.78 31.408C47.94 32.864 46.736 33.9933 45.168 34.796C43.6187 35.5987 41.8173 36 39.764 36H32.932V16.456H39.764ZM39.624 32.668C41.6773 32.668 43.264 32.108 44.384 30.988C45.504 29.868 46.064 28.2907 46.064 26.256C46.064 24.2213 45.504 22.6347 44.384 21.496C43.264 20.3387 41.6773 19.76 39.624 19.76H36.852V32.668H39.624ZM67.4223 27.908C67.4223 28.468 67.385 28.972 67.3103 29.42H55.9703C56.0636 30.54 56.4556 31.4173 57.1463 32.052C57.837 32.6867 58.6863 33.004 59.6943 33.004C61.1503 33.004 62.1863 32.3787 62.8023 31.128H67.0303C66.5823 32.6213 65.7236 33.8533 64.4543 34.824C63.185 35.776 61.6263 36.252 59.7783 36.252C58.285 36.252 56.941 35.9253 55.7463 35.272C54.5703 34.6 53.6463 33.6573 52.9743 32.444C52.321 31.2307 51.9943 29.8307 51.9943 28.244C51.9943 26.6387 52.321 25.2293 52.9743 24.016C53.6276 22.8027 54.5423 21.8693 55.7183 21.216C56.8943 20.5627 58.2476 20.236 59.7783 20.236C61.253 20.236 62.569 20.5533 63.7263 21.188C64.9023 21.8227 65.8076 22.728 66.4423 23.904C67.0956 25.0613 67.4223 26.396 67.4223 27.908ZM63.3623 26.788C63.3436 25.78 62.9796 24.9773 62.2703 24.38C61.561 23.764 60.693 23.456 59.6663 23.456C58.6956 23.456 57.8743 23.7547 57.2023 24.352C56.549 24.9307 56.1476 25.7427 55.9983 26.788H63.3623ZM76.7516 32.388L80.6716 20.488H84.8436L79.1036 36H74.3436L68.6316 20.488H72.8316L76.7516 32.388ZM89.0333 18.64C88.3426 18.64 87.7639 18.4253 87.2973 17.996C86.8493 17.548 86.6253 16.9973 86.6253 16.344C86.6253 15.6907 86.8493 15.1493 87.2973 14.72C87.7639 14.272 88.3426 14.048 89.0333 14.048C89.7239 14.048 90.2933 14.272 90.7413 14.72C91.2079 15.1493 91.4413 15.6907 91.4413 16.344C91.4413 16.9973 91.2079 17.548 90.7413 17.996C90.2933 18.4253 89.7239 18.64 89.0333 18.64ZM90.9653 20.488V36H87.0453V20.488H90.9653ZM99.4023 23.708V31.212C99.4023 31.7347 99.5236 32.1173 99.7663 32.36C100.028 32.584 100.457 32.696 101.054 32.696H102.874V36H100.41C97.1063 36 95.4543 34.3947 95.4543 31.184V23.708H93.6063V20.488H95.4543V16.652H99.4023V20.488H102.874V23.708H99.4023Z" fill="white"/>
<path d="M7.62431 28.4215C7.58965 26.6458 7.91929 25.0871 8.61324 23.7453C9.29087 22.3878 10.2625 21.3367 11.5283 20.5918C12.794 19.847 14.2507 19.4585 15.8983 19.4263C17.53 19.3945 18.9929 19.734 20.2871 20.4449C21.5809 21.1398 22.6088 22.1519 23.3709 23.4813C24.1167 24.795 24.5067 26.3316 24.5411 28.0913L24.6718 34.786L7.75498 35.1162L7.62431 28.4215ZM20.3969 28.5323C20.37 27.1565 19.973 26.0841 19.2059 25.3149C18.4387 24.5457 17.3673 24.1746 15.9915 24.2014C14.5998 24.2286 13.5357 24.6414 12.7991 25.4399C12.0466 26.2388 11.6837 27.3261 11.7106 28.7018L11.7424 30.3335L20.4288 30.164L20.3969 28.5323ZM7.08926 1.01029L24.1199 6.51098L24.2374 12.5338L7.43492 18.7189L7.33656 13.6799L19.4753 9.60221L7.18715 6.02533L7.08926 1.01029Z" fill="white"/>
</svg>
