<svg xmlns="http://www.w3.org/2000/svg" version="1.1" xmlns:xlink="http://www.w3.org/1999/xlink" xmlns:svgjs="http://svgjs.com/svgjs" width="1000" height="600" preserveAspectRatio="none" viewBox="0 0 1000 600"><g mask="url(&quot;#SvgjsMask1131&quot;)" fill="none"><rect width="1000" height="600" x="0" y="0" fill="rgba(33, 33, 33, 1)"></rect><path d="M0,444.788C81.956,469.711,173.529,428.168,242.64,377.555C309.881,328.312,360.585,253.08,374.075,170.835C386.435,95.476,331.463,28.975,311.922,-44.848C295.194,-108.044,309.96,-182.083,267.499,-231.789C224.976,-281.568,151.128,-282.771,89.59,-305.116C23.229,-329.212,-38.749,-381.366,-108.106,-368.175C-178.593,-354.769,-223.706,-288.719,-272.621,-236.227C-323.3,-181.843,-379.306,-129.184,-397.886,-57.207C-417.51,18.812,-425.433,110.009,-378.185,172.711C-331.138,235.147,-226.764,208.45,-163.303,254.105C-93.968,303.987,-81.719,419.937,0,444.788" fill="#191919"></path><path d="M1000 976.05C1075.307 980.406 1158.698 986.056 1218.853 940.5419999999999 1278.231 895.616 1292.894 814.027 1309.942 741.546 1324.434 679.934 1321.5529999999999 617.631 1309.416 555.513 1297.791 496.015 1275.233 441.127 1241.415 390.813 1203.78 334.82 1167.363 269.396 1103.164 248.65499999999997 1038.654 227.81400000000002 973.809 272.192 906.8389999999999 282.722 827.321 295.225 728.6700000000001 258.547 672.645 316.346 617.15 373.598 660.889 470.699 648.313 549.435 635.462 629.894 567.427 708.06 598.015 783.58 628.5350000000001 858.932 723.509 881.0219999999999 796.835 916.131 861.8340000000001 947.252 928.0550000000001 971.889 1000 976.05" fill="#292929"></path></g><defs><mask id="SvgjsMask1131"><rect width="1000" height="600" fill="#ffffff"></rect></mask></defs></svg>