<svg width="35" height="36" viewBox="0 0 35 36" fill="none" xmlns="http://www.w3.org/2000/svg">
<path d="M18.0455 34.9999H16.0755C9.57546 34.9999 3.27246 30.0178 3.27246 23.0438C3.27246 19.0589 4.74946 17.0658 4.74946 17.0658C4.74946 17.0658 4.25746 15.0728 4.25746 13.0808C4.25746 7.10285 10.5605 2.12085 17.0605 2.12085C23.5605 2.12085 29.8635 8.09885 29.8635 13.0808C29.8635 15.0738 29.3715 17.0658 29.3715 17.0658C29.3715 17.0658 30.8485 19.0589 30.8485 23.0438C30.8485 30.0178 24.5455 34.9999 18.0455 34.9999Z" fill="#BF6952"/>
<path d="M28.7276 15.3788C28.7276 11.5718 25.6406 8.4848 21.8336 8.4848C19.9796 8.4848 18.2996 9.2208 17.0606 10.4108C15.8216 9.2198 14.1416 8.4848 12.2876 8.4848C8.48055 8.4848 5.39355 11.5718 5.39355 15.3788C5.39355 17.6878 6.53355 19.7268 8.27555 20.9778C7.78655 22.1898 7.51455 23.5238 7.51455 24.9238C7.51455 30.4888 11.7886 33.9388 17.0596 33.9388C22.3306 33.9388 26.6046 30.4888 26.6046 24.9238C26.6046 23.5228 26.3326 22.1898 25.8436 20.9778C27.5876 19.7268 28.7276 17.6878 28.7276 15.3788V15.3788Z" fill="#D79E84"/>
<path d="M12.0605 19.9998C13.1651 19.9998 14.0605 18.6567 14.0605 16.9998C14.0605 15.343 13.1651 13.9998 12.0605 13.9998C10.956 13.9998 10.0605 15.343 10.0605 16.9998C10.0605 18.6567 10.956 19.9998 12.0605 19.9998Z" fill="#292F33"/>
<path d="M22.0605 19.9998C23.1651 19.9998 24.0605 18.6567 24.0605 16.9998C24.0605 15.343 23.1651 13.9998 22.0605 13.9998C20.956 13.9998 20.0605 15.343 20.0605 16.9998C20.0605 18.6567 20.956 19.9998 22.0605 19.9998Z" fill="#292F33"/>
<path d="M17.0606 31.4998C19.7756 31.4998 22.0876 30.1198 22.9556 28.1908C23.3146 27.3928 22.7056 26.4998 21.7986 26.4998H12.3226C11.4156 26.4998 10.8066 27.3928 11.1656 28.1908C12.0336 30.1198 14.3456 31.4998 17.0606 31.4998Z" fill="#642116"/>
<path d="M15.5605 23.0608C16.1128 23.0608 16.5605 22.5858 16.5605 21.9998C16.5605 21.4139 16.1128 20.9388 15.5605 20.9388C15.0083 20.9388 14.5605 21.4139 14.5605 21.9998C14.5605 22.5858 15.0083 23.0608 15.5605 23.0608Z" fill="#642116"/>
<path d="M18.5605 22.9998C19.1128 22.9998 19.5605 22.5521 19.5605 21.9998C19.5605 21.4475 19.1128 20.9998 18.5605 20.9998C18.0083 20.9998 17.5605 21.4475 17.5605 21.9998C17.5605 22.5521 18.0083 22.9998 18.5605 22.9998Z" fill="#642116"/>
<path d="M21.3027 0.169824C21.3027 0.169824 15.9997 -0.891176 13.8787 2.29082C11.7577 5.47282 18.1207 3.35182 18.1207 3.35182C18.1207 3.35182 19.1817 0.169824 21.3027 0.169824Z" fill="#BF6952"/>
<path d="M8.06055 31.9968C8.18555 32.6558 9.84155 33.4058 9.84155 33.4058L9.06055 18.9958L7.06055 23.9998C7.06055 23.9998 7.93555 31.3368 8.06055 31.9968ZM26.0605 31.9968C25.8725 32.7188 24.3105 33.3748 24.3105 33.3748L25.0615 18.9958L27.0605 23.9998C27.0605 23.9998 26.2485 31.2748 26.0605 31.9968Z" fill="#9B3C07"/>
<path d="M1.06055 35.9998H9.06055L8.04855 20.1668L4.05155 15.9988L1.06055 35.9998ZM33.0605 35.9998H25.0605L26.0625 20.1668L30.0595 15.9988L33.0605 35.9998Z" fill="#BF6952"/>
<path d="M29.6686 15.0528C29.6686 15.0528 29.8686 12.5768 30.8656 11.5108C32.1676 10.1178 33.7356 11.1968 33.6146 13.1508C33.1746 20.2368 31.6186 22.1838 29.5966 23.3468C27.5756 24.5108 24.8076 24.2928 21.8786 21.4748C18.9496 18.6568 17.7206 16.9208 17.3706 15.6778C17.0206 14.4338 18.3266 13.4238 19.4406 14.0568C20.4426 14.6258 21.9506 16.3648 21.9506 16.3648C21.9506 16.3648 20.0036 13.6688 19.7276 12.6268C19.3456 11.1858 21.0496 10.3258 21.9746 11.1198C22.8866 11.9028 24.7666 14.2758 24.7666 14.2758C24.7666 14.2758 23.1606 11.8118 23.0126 10.6248C22.8666 9.4528 24.2516 8.4168 25.4756 9.4388C26.6986 10.4618 28.6646 13.4098 29.6686 15.0528V15.0528ZM4.45259 15.0528C4.45259 15.0528 4.25259 12.5768 3.25559 11.5108C1.95359 10.1178 0.385594 11.1968 0.506594 13.1508C0.946594 20.2368 2.50259 22.1838 4.52459 23.3468C6.54559 24.5108 9.31359 24.2928 12.2426 21.4748C15.1716 18.6568 16.4006 16.9208 16.7506 15.6778C17.1006 14.4338 15.7946 13.4238 14.6806 14.0568C13.6786 14.6258 12.1706 16.3648 12.1706 16.3648C12.1706 16.3648 14.1176 13.6688 14.3936 12.6268C14.7756 11.1858 13.0716 10.3258 12.1466 11.1198C11.2346 11.9028 9.35459 14.2758 9.35459 14.2758C9.35459 14.2758 10.9606 11.8118 11.1086 10.6248C11.2546 9.4528 9.86959 8.4168 8.64559 9.4388C7.42159 10.4608 5.45659 13.4098 4.45259 15.0528V15.0528Z" fill="#D79E84"/>
<path d="M27.1427 24.5118C25.3127 24.5118 23.3687 23.6028 21.5317 21.8358C18.7367 19.1478 17.3047 17.2898 16.8897 15.8138C16.6727 15.0428 16.9237 14.2598 17.5457 13.7728C18.1377 13.3088 18.9077 13.2328 19.5817 13.5658C19.4247 13.2578 19.3037 12.9778 19.2447 12.7558C19.0187 11.9048 19.3347 11.0898 20.0677 10.6298C20.7937 10.1738 21.6907 10.2178 22.3007 10.7418C22.3847 10.8148 22.4767 10.8988 22.5727 10.9928C22.5467 10.8858 22.5267 10.7838 22.5147 10.6878C22.4177 9.91184 22.8217 9.13484 23.5187 8.75384C24.2457 8.35784 25.0957 8.47284 25.7937 9.05584C26.9137 9.99184 28.4757 12.2668 29.3837 13.6668C29.5707 12.8328 29.9067 11.8028 30.4987 11.1688C31.1797 10.4398 32.0347 10.1968 32.7907 10.5218C33.6697 10.9008 34.1887 11.9448 34.1117 13.1808C33.6757 20.2118 32.1557 22.4498 29.8437 23.7808C28.9967 24.2708 28.0837 24.5118 27.1427 24.5118V24.5118ZM18.7207 14.3618C18.5237 14.3618 18.3297 14.4278 18.1617 14.5598C17.8607 14.7958 17.7447 15.1628 17.8507 15.5428C18.2057 16.8028 19.6357 18.6258 22.2237 21.1148C24.6977 23.4928 27.2257 24.1318 29.3467 22.9138C31.0047 21.9588 32.6617 20.4158 33.1147 13.1198C33.1717 12.1988 32.7947 11.6128 32.3947 11.4408C32.0397 11.2848 31.6237 11.4328 31.2297 11.8528C30.5127 12.6208 30.2187 14.4528 30.1667 15.0938C30.1487 15.3098 29.9947 15.4898 29.7837 15.5398C29.5737 15.5908 29.3547 15.4978 29.2417 15.3138C28.2787 13.7388 26.3347 10.8098 25.1537 9.82384C24.6337 9.38984 24.2067 9.51684 23.9987 9.63184C23.6577 9.81784 23.4607 10.1918 23.5077 10.5638C23.6177 11.4438 24.7557 13.3448 25.1857 14.0038C25.3317 14.2278 25.2757 14.5258 25.0587 14.6828C24.8437 14.8388 24.5407 14.7978 24.3747 14.5878C24.3557 14.5648 22.5137 12.2428 21.6477 11.5008C21.3347 11.2308 20.8827 11.2988 20.5977 11.4768C20.4277 11.5838 20.0497 11.8968 20.2097 12.4998C20.4167 13.2808 21.8277 15.3448 22.3547 16.0738C22.5107 16.2908 22.4697 16.5928 22.2597 16.7588C22.0507 16.9228 21.7467 16.8968 21.5717 16.6948C21.1687 16.2288 19.9537 14.9248 19.1937 14.4938C19.0407 14.4048 18.8797 14.3618 18.7207 14.3618V14.3618Z" fill="#BF6952"/>
<path d="M6.97853 24.5118C6.03653 24.5118 5.12453 24.2708 4.27453 23.7818C1.96353 22.4508 0.443526 20.2138 0.00752558 13.1818C-0.0694744 11.9458 0.449526 10.9018 1.32953 10.5228C2.07953 10.1988 2.93853 10.4398 3.62053 11.1698C4.21253 11.8028 4.54953 12.8328 4.73653 13.6678C5.64453 12.2688 7.20453 9.99384 8.32653 9.05684C9.02553 8.47184 9.87553 8.35784 10.6005 8.75484C11.2985 9.13484 11.7025 9.91284 11.6045 10.6888C11.5925 10.7848 11.5725 10.8868 11.5465 10.9938C11.6435 10.8998 11.7345 10.8148 11.8195 10.7428C12.4275 10.2208 13.3265 10.1758 14.0515 10.6308C14.7855 11.0908 15.1015 11.9058 14.8765 12.7568C14.8175 12.9788 14.6965 13.2588 14.5405 13.5678C15.2125 13.2358 15.9835 13.3108 16.5745 13.7748C17.1975 14.2618 17.4485 15.0448 17.2315 15.8158C16.8155 17.2938 15.3835 19.1508 12.5885 21.8378C10.7525 23.6028 8.80853 24.5118 6.97853 24.5118V24.5118ZM2.01453 11.3808C1.91453 11.3808 1.81853 11.4008 1.72453 11.4408C1.32553 11.6128 0.948526 12.1988 1.00553 13.1198C1.45853 20.4158 3.11553 21.9588 4.77353 22.9138C6.89453 24.1348 9.42153 23.4948 11.8955 21.1148C14.4835 18.6268 15.9135 16.8038 16.2685 15.5428C16.3755 15.1628 16.2595 14.7948 15.9585 14.5598C15.6555 14.3218 15.2695 14.2958 14.9265 14.4918C14.1655 14.9248 12.9515 16.2268 12.5475 16.6928C12.3715 16.8948 12.0675 16.9218 11.8595 16.7568C11.6505 16.5908 11.6085 16.2888 11.7645 16.0718C12.2905 15.3428 13.7025 13.2788 13.9105 12.4978C14.0705 11.8948 13.6915 11.5818 13.5215 11.4748C13.2375 11.2958 12.7875 11.2268 12.4725 11.4988C11.6075 12.2418 9.76553 14.5628 9.74753 14.5858C9.58153 14.7938 9.28053 14.8368 9.06353 14.6808C8.84653 14.5248 8.79053 14.2258 8.93653 14.0018C9.36553 13.3428 10.5045 11.4408 10.6135 10.5618C10.6595 10.1898 10.4625 9.81584 10.1225 9.62984C9.91453 9.51684 9.48653 9.38884 8.96853 9.82184C7.93853 10.6818 6.12753 13.2708 4.87953 15.3118C4.76653 15.4968 4.55053 15.5898 4.33753 15.5378C4.12753 15.4878 3.97253 15.3078 3.95453 15.0918C3.90253 14.4508 3.60853 12.6188 2.89153 11.8508C2.59953 11.5418 2.29753 11.3808 2.01453 11.3808V11.3808Z" fill="#BF6952"/>
<path d="M25.0487 9.75782C25.0847 9.78382 25.1177 9.79282 25.1547 9.82382C26.3357 10.8098 28.2797 13.7388 29.2427 15.3138C29.3327 15.4598 29.4917 15.5238 29.6567 15.5288C29.8727 14.4768 29.9297 13.2458 29.9227 12.0738C29.6757 12.5918 29.4977 13.1608 29.3847 13.6668C28.4767 12.2668 26.9147 9.99182 25.7947 9.05582C25.1287 8.49882 24.3267 8.38382 23.6237 8.71582C24.2957 8.94182 24.7437 9.33082 25.0487 9.75782V9.75782ZM4.87866 15.3138C6.12666 13.2718 7.93766 10.6838 8.96766 9.82382C9.03666 9.76582 9.09866 9.74182 9.16366 9.70282C9.46266 9.30282 9.89466 8.94382 10.5227 8.72682C9.81466 8.37782 9.00067 8.49182 8.32566 9.05682C7.20367 9.99382 5.64267 12.2688 4.73567 13.6678C4.62967 13.1958 4.46866 12.6668 4.24766 12.1778C4.24466 13.3188 4.30466 14.5058 4.51266 15.5268C4.66066 15.5068 4.79866 15.4448 4.87866 15.3138V15.3138Z" fill="#9B3C07"/>
</svg>
